<?xml version="1.0" ?><!DOCTYPE svg  PUBLIC '-//W3C//DTD SVG 1.1//EN'  'http://www.w3.org/Graphics/SVG/1.1/DTD/svg11.dtd'><svg enable-background="new 0 0 24 24" height="24px" id="Layer_1" version="1.1" viewBox="0 0 24 24" width="24px" xml:space="preserve" xmlns="http://www.w3.org/2000/svg" xmlns:xlink="http://www.w3.org/1999/xlink"><path clip-rule="evenodd" d="M13.637,24c-0.301,0-0.547-0.246-0.547-0.545v-9.818  c0-0.301,0.246-0.547,0.547-0.547h9.814c0.303,0,0.549,0.246,0.549,0.547v9.818C24,23.754,23.754,24,23.451,24H13.637z M10.363,24  c0.301,0,0.547-0.246,0.547-0.545v-9.818c0-0.301-0.246-0.547-0.547-0.547H0.547C0.246,13.09,0,13.336,0,13.637v9.818  C0,23.754,0.246,24,0.547,24H10.363z M23.451,10.908c0.303,0,0.549-0.244,0.549-0.545V0.545C24,0.245,23.754,0,23.451,0h-9.814  c-0.301,0-0.547,0.245-0.547,0.545v9.818c0,0.301,0.246,0.545,0.547,0.545H23.451z M10.363,10.908c0.301,0,0.547-0.244,0.547-0.545  V0.545c0-0.3-0.246-0.545-0.547-0.545H0.547C0.246,0,0,0.245,0,0.545v9.818c0,0.301,0.246,0.545,0.547,0.545H10.363z" fill-rule="evenodd"/></svg>